<svg enable-background="new 0 0 32 32" style="fill:#ffffff;" version="1.0" viewBox="0 0 32 40" x="0px"
  xml:space="preserve" xmlns:xlink="http://www.w3.org/1999/xlink" xmlns="http://www.w3.org/2000/svg"
  y="0px">
  <g><path
    d="M14.985,6.005c-2.795,0-3.601,1.493-5.004,4.003c-0.066,0.117-8.007,16.014-8.007,16.014
    c-0.903,1.661-2.713,4.477-1.591,5.595c1.161,1.165,4.199-0.892,5.594-1.592c0,0,12.296-6.126,16.014-8.007
    c2.597-1.313,4.004-2.209,4.004-5.004c0-2.205-0.278-3.28-4.004-7.006C18.266,6.283,17.19,6.005,14.985,6.005z"/><path
    d="M27.996,6.005c-1.259,0-2.142,0.34-2.764,0.739c0.406-0.637,0.763-1.521,0.763-2.741C25.995,1.095,23.993,0,23.993,0
    s-2.002,1.032-2.002,4.003c0,3.065,2.002,4.003,2.002,4.003s1.095,2.002,4.003,2.002c2.909,0,4.004-2.002,4.004-2.002
    S30.968,6.005,27.996,6.005z"/></g>
</svg>
